<svg width="20" height="20" viewBox="0 0 20 20" fill="none" xmlns="http://www.w3.org/2000/svg">
<path d="M12.857 15.082C14.7202 14.8614 16.5509 14.4217 18.311 13.772C16.8204 12.1208 15.9967 9.9745 16 7.75V7C16 5.4087 15.3679 3.88258 14.2427 2.75736C13.1174 1.63214 11.5913 1 10 1C8.40872 1 6.8826 1.63214 5.75738 2.75736C4.63216 3.88258 4.00002 5.4087 4.00002 7V7.75C4.00304 9.97463 3.17901 12.121 1.68802 13.772C3.42102 14.412 5.24802 14.857 7.14302 15.082M12.857 15.082C10.959 15.3071 9.04104 15.3071 7.14302 15.082M12.857 15.082C13.0011 15.5319 13.037 16.0094 12.9616 16.4757C12.8863 16.942 12.7019 17.384 12.4234 17.7656C12.145 18.1472 11.7803 18.4576 11.3592 18.6716C10.9381 18.8856 10.4724 18.9972 10 18.9972C9.52765 18.9972 9.06195 18.8856 8.64083 18.6716C8.21972 18.4576 7.85509 18.1472 7.57664 17.7656C7.29819 17.384 7.11379 16.942 7.03844 16.4757C6.96309 16.0094 6.99892 15.5319 7.14302 15.082M1.12402 5.5C1.40599 3.82497 2.15782 2.26444 3.29202 1M16.708 1C17.8422 2.26444 18.5941 3.82497 18.876 5.5" stroke="#0154A0" stroke-width="1.5" stroke-linecap="round" stroke-linejoin="round"/>
</svg>
