<svg width="12" height="13" viewBox="0 0 12 13" fill="none" xmlns="http://www.w3.org/2000/svg">
<path fill-rule="evenodd" clip-rule="evenodd" d="M2 0.75C2 0.551088 2.07902 0.360322 2.21967 0.21967C2.36032 0.0790177 2.55109 0 2.75 0C2.94891 0 3.13968 0.0790177 3.28033 0.21967C3.42098 0.360322 3.5 0.551088 3.5 0.75V2H8.5V0.75C8.5 0.551088 8.57902 0.360322 8.71967 0.21967C8.86032 0.0790177 9.05109 0 9.25 0C9.44891 0 9.63968 0.0790177 9.78033 0.21967C9.92098 0.360322 10 0.551088 10 0.75V2C10.5304 2 11.0391 2.21071 11.4142 2.58579C11.7893 2.96086 12 3.46957 12 4V11C12 11.5304 11.7893 12.0391 11.4142 12.4142C11.0391 12.7893 10.5304 13 10 13H2C1.46957 13 0.960859 12.7893 0.585786 12.4142C0.210714 12.0391 0 11.5304 0 11V4C0 3.46957 0.210714 2.96086 0.585786 2.58579C0.960859 2.21071 1.46957 2 2 2V0.75ZM2.5 5C2.23478 5 1.98043 5.10536 1.79289 5.29289C1.60536 5.48043 1.5 5.73478 1.5 6V10.5C1.5 10.7652 1.60536 11.0196 1.79289 11.2071C1.98043 11.3946 2.23478 11.5 2.5 11.5H9.5C9.76522 11.5 10.0196 11.3946 10.2071 11.2071C10.3946 11.0196 10.5 10.7652 10.5 10.5V6C10.5 5.73478 10.3946 5.48043 10.2071 5.29289C10.0196 5.10536 9.76522 5 9.5 5H2.5Z" fill="#344054"/>
</svg>
