<svg xmlns="http://www.w3.org/2000/svg" width="42.169" height="42.169" viewBox="0 0 42.169 42.169">
  <g id="Group_41305" data-name="Group 41305" transform="translate(3 3)">
    <g id="Ellipse_43" data-name="Ellipse 43" transform="translate(0 0)" fill="rgba(157,157,157,0.7)" stroke="#fff" stroke-width="3">
      <ellipse cx="18.084" cy="18.084" rx="18.084" ry="18.084" stroke="none"/>
      <ellipse cx="18.084" cy="18.084" rx="19.584" ry="19.584" fill="none"/>
    </g>
    <g id="camera" transform="translate(8.748 9.681)">
      <g id="Path_1392" data-name="Path 1392" fill="none" stroke-linecap="round" stroke-linejoin="round">
        <path d="M0,14.939a1.867,1.867,0,0,0,1.867,1.867H16.807a1.867,1.867,0,0,0,1.867-1.867V4.669A1.873,1.873,0,0,0,16.807,2.8h-2.8L12.138,0h-5.6L4.669,2.8h-2.8A1.867,1.867,0,0,0,0,4.669Z" stroke="none"/>
        <path d="M 16.8068962097168 16.80690002441406 C 17.8382568359375 16.80690002441406 18.67433738708496 15.97082138061523 18.67433738708496 14.93947124481201 L 18.67433738708496 4.668581008911133 C 18.67433738708496 3.641490936279297 17.83398628234863 2.801151037216187 16.8068962097168 2.801151037216187 L 14.00574684143066 2.801151037216187 L 12.1383171081543 9.658813269197708e-07 L 6.536016941070557 9.658813269197708e-07 L 4.668586730957031 2.801151037216187 L 1.867436766624451 2.801151037216187 C 0.8360767960548401 2.801151037216187 -3.213806166968425e-06 3.63723087310791 -3.213806166968425e-06 4.668581008911133 L -3.213806166968425e-06 14.93947124481201 C -3.213806166968425e-06 15.97082138061523 0.8360767960548401 16.80690002441406 1.867436766624451 16.80690002441406 L 16.8068962097168 16.80690002441406 M 16.8068962097168 19.80690002441406 L 1.867436766624451 19.80690002441406 C -0.816483199596405 19.80690002441406 -3.000003099441528 17.62338066101074 -3.000003099441528 14.93947124481201 L -3.000003099441528 4.668581008911133 C -3.000003099441528 1.984670996665955 -0.816483199596405 -0.1988490372896194 1.867436766624451 -0.1988490372896194 L 3.063035249710083 -0.1988490372896194 L 4.039866924285889 -1.664098978042603 C 4.596256732940674 -2.498698949813843 5.532956600189209 -2.999999046325684 6.536016941070557 -2.999999046325684 L 12.1383171081543 -2.999999046325684 C 13.14137649536133 -2.999999046325684 14.07807636260986 -2.498698949813843 14.63446712493896 -1.664098978042603 L 15.61129856109619 -0.1988490372896194 L 16.8068962097168 -0.1988490372896194 C 19.49081611633301 -0.1988490372896194 21.67433738708496 1.984670996665955 21.67433738708496 4.668581008911133 L 21.67433738708496 14.93947124481201 C 21.67433738708496 17.62338066101074 19.49081611633301 19.80690002441406 16.8068962097168 19.80690002441406 Z" stroke="none" fill="#fff"/>
      </g>
      <g id="Ellipse_44" data-name="Ellipse 44" transform="translate(5.022 5.909)" fill="none" stroke="#fff" stroke-linecap="round" stroke-linejoin="round" stroke-width="3">
        <ellipse cx="3.871" cy="3.871" rx="3.871" ry="3.871" stroke="none"/>
        <ellipse cx="3.871" cy="3.871" rx="5.371" ry="5.371" fill="none"/>
      </g>
    </g>
  </g>
</svg>
