<svg width="18" height="22" viewBox="0 0 18 22" fill="none" xmlns="http://www.w3.org/2000/svg">
<path fill-rule="evenodd" clip-rule="evenodd" d="M2.625 0.5H6C6.99456 0.5 7.94839 0.895088 8.65165 1.59835C9.35491 2.30161 9.75 3.25544 9.75 4.25V6.125C9.75 7.161 10.59 8 11.625 8H13.5C14.4946 8 15.4484 8.39509 16.1517 9.09835C16.8549 9.80161 17.25 10.7554 17.25 11.75V19.625C17.25 20.66 16.41 21.5 15.375 21.5H2.625C2.12772 21.5 1.65081 21.3025 1.29917 20.9508C0.947544 20.5992 0.75 20.1223 0.75 19.625V2.375C0.75 1.339 1.59 0.5 2.625 0.5ZM6.75 13.25C6.55109 13.25 6.36032 13.329 6.21967 13.4697C6.07902 13.6103 6 13.8011 6 14C6 14.1989 6.07902 14.3897 6.21967 14.5303C6.36032 14.671 6.55109 14.75 6.75 14.75H12C12.1989 14.75 12.3897 14.671 12.5303 14.5303C12.671 14.3897 12.75 14.1989 12.75 14C12.75 13.8011 12.671 13.6103 12.5303 13.4697C12.3897 13.329 12.1989 13.25 12 13.25H6.75Z" fill="#7490F4"/>
</svg>
