<svg width="16" height="22" viewBox="0 0 16 22" fill="none" xmlns="http://www.w3.org/2000/svg">
<path d="M8 0.5C8.19891 0.5 8.38968 0.579018 8.53033 0.71967C8.67098 0.860322 8.75 1.05109 8.75 1.25V6.5H7.25V1.25C7.25 1.05109 7.32902 0.860322 7.46967 0.71967C7.61032 0.579018 7.80109 0.5 8 0.5ZM7.25 6.5V12.19L5.53 10.47C5.38783 10.3375 5.19978 10.2654 5.00548 10.2688C4.81118 10.2723 4.62579 10.351 4.48838 10.4884C4.35097 10.6258 4.27225 10.8112 4.26882 11.0055C4.2654 11.1998 4.33752 11.3878 4.47 11.53L7.47 14.53C7.61063 14.6705 7.80125 14.7493 8 14.7493C8.19875 14.7493 8.38937 14.6705 8.53 14.53L11.53 11.53C11.6037 11.4613 11.6628 11.3785 11.7038 11.2865C11.7448 11.1945 11.7668 11.0952 11.7686 10.9945C11.7704 10.8938 11.7518 10.7938 11.7141 10.7004C11.6764 10.607 11.6203 10.5222 11.549 10.451C11.4778 10.3797 11.393 10.3236 11.2996 10.2859C11.2062 10.2482 11.1062 10.2296 11.0055 10.2314C10.9048 10.2332 10.8055 10.2552 10.7135 10.2962C10.6215 10.3372 10.5387 10.3963 10.47 10.47L8.75 12.19V6.5H12.5C13.2956 6.5 14.0587 6.81607 14.6213 7.37868C15.1839 7.94129 15.5 8.70435 15.5 9.5V18.5C15.5 19.2956 15.1839 20.0587 14.6213 20.6213C14.0587 21.1839 13.2956 21.5 12.5 21.5H3.5C2.70435 21.5 1.94129 21.1839 1.37868 20.6213C0.816071 20.0587 0.5 19.2956 0.5 18.5V9.5C0.5 8.70435 0.816071 7.94129 1.37868 7.37868C1.94129 6.81607 2.70435 6.5 3.5 6.5H7.25Z" fill="#FCBB3E"/>
</svg>
