<svg id="focus" xmlns="http://www.w3.org/2000/svg" width="48.735" height="48.735" viewBox="0 0 48.735 48.735">
  <path id="Path_4123" data-name="Path 4123" d="M39.6,48.735H9.138A9.137,9.137,0,0,1,0,39.6V9.138A9.137,9.137,0,0,1,9.138,0H39.6a9.137,9.137,0,0,1,9.138,9.138V39.6A9.137,9.137,0,0,1,39.6,48.735Zm0,0" fill="rgba(99,164,249,0.1)"/>
  <g id="Group_36117" data-name="Group 36117" transform="translate(12.185 14.212)" opacity="0.5">
    <path id="Path_4124" data-name="Path 4124" d="M129.032,154.913a1.016,1.016,0,0,1-1.016-1.016v-1.523a3.049,3.049,0,0,1,3.046-3.046h1.523a1.016,1.016,0,0,1,0,2.032h-1.523a1.017,1.017,0,0,0-1.016,1.016V153.9a1.014,1.014,0,0,1-1.014,1.014Zm0,0" transform="translate(-128.016 -149.327)" fill="#63a4f9"/>
    <path id="Path_4125" data-name="Path 4125" d="M329.914,154.9a1.016,1.016,0,0,1-1.016-1.016V152.36a1.017,1.017,0,0,0-1.016-1.016h-1.523a1.016,1.016,0,0,1,0-2.032h1.523a3.049,3.049,0,0,1,3.046,3.046v1.523A1.015,1.015,0,0,1,329.914,154.9Zm0,0" transform="translate(-306.56 -149.312)" fill="#63a4f9"/>
    <path id="Path_4126" data-name="Path 4126" d="M132.585,309.585h-1.523a3.049,3.049,0,0,1-3.046-3.046v-1.523a1.016,1.016,0,1,1,2.032,0v1.523a1.017,1.017,0,0,0,1.016,1.016h1.523a1.015,1.015,0,1,1,0,2.03Zm0,0" transform="translate(-128.016 -289.276)" fill="#63a4f9"/>
    <path id="Path_4127" data-name="Path 4127" d="M327.883,309.571H326.36a1.016,1.016,0,0,1,0-2.032h1.523a1.017,1.017,0,0,0,1.016-1.016V305a1.016,1.016,0,0,1,2.032,0v1.523A3.052,3.052,0,0,1,327.883,309.571Zm0,0" transform="translate(-306.561 -289.262)" fill="#63a4f9"/>
  </g>
  <path id="Path_4128" data-name="Path 4128" d="M178.764,191.246a8.146,8.146,0,0,0-8.1,5.981.743.743,0,0,0,0,.366,8.479,8.479,0,0,0,16.2,0,.743.743,0,0,0,0-.366A8.147,8.147,0,0,0,178.764,191.246Zm0,9.21a3.046,3.046,0,1,1,3.046-3.046A3.055,3.055,0,0,1,178.764,200.456Zm0,0" transform="translate(-154.396 -173.042)" fill="#63a4f9"/>
</svg>
