<svg width="40" height="40" viewBox="0 0 40 40" fill="none" xmlns="http://www.w3.org/2000/svg">
<path d="M14 7C14 6.20435 14.3161 5.44129 14.8787 4.87868C15.4413 4.31607 16.2044 4 17 4H24.758C25.5534 4.0007 26.3159 4.31723 26.878 4.88L33.122 11.12C33.4008 11.399 33.6218 11.7301 33.7725 12.0946C33.9231 12.459 34.0004 12.8496 34 13.244V25C34 25.7956 33.6839 26.5587 33.1213 27.1213C32.5587 27.6839 31.7956 28 31 28H29V21.242C28.9997 19.6508 28.3673 18.125 27.242 17L21 10.758C19.875 9.6327 18.3492 9.00034 16.758 9H14V7Z" fill="#0154A0"/>
<path d="M9 12C8.20435 12 7.44129 12.3161 6.87868 12.8787C6.31607 13.4413 6 14.2044 6 15V33C6 33.7957 6.31607 34.5587 6.87868 35.1213C7.44129 35.6839 8.20435 36 9 36H23C23.7956 36 24.5587 35.6839 25.1213 35.1213C25.6839 34.5587 26 33.7957 26 33V21.242C25.9993 20.4466 25.6828 19.6841 25.12 19.122L18.88 12.878C18.601 12.5992 18.2699 12.3782 17.9054 12.2275C17.541 12.0769 17.1504 11.9996 16.756 12H9Z" fill="#0154A0"/>
</svg>
