<svg width="16" height="18" viewBox="0 0 16 18" fill="none" xmlns="http://www.w3.org/2000/svg">
<path fill-rule="evenodd" clip-rule="evenodd" d="M0.628 0.601C3.028 0.206 5.49 0 8 0C10.51 0 12.973 0.206 15.372 0.601C15.5474 0.629916 15.7068 0.72019 15.8218 0.855723C15.9369 0.991257 16 1.16324 16 1.341V3.629C15.9997 4.22539 15.7627 4.79728 15.341 5.219L10.659 9.902C10.2373 10.3237 10.0003 10.8956 10 11.492V14.529C10 15.213 9.69 15.859 9.156 16.286L7.219 17.836C7.10867 17.9244 6.97559 17.9798 6.83511 17.9959C6.69463 18.0119 6.55248 17.9879 6.42505 17.9267C6.29762 17.8654 6.19011 17.7694 6.1149 17.6497C6.03969 17.5299 5.99986 17.3914 6 17.25V11.493C6 11.1975 5.94181 10.9049 5.82874 10.632C5.71566 10.359 5.54993 10.1109 5.341 9.902L0.659 5.22C0.450069 5.01107 0.284336 4.76303 0.171265 4.49004C0.0581932 4.21706 -2.55868e-06 3.92448 0 3.629V1.34C2.56239e-06 1.16224 0.0631438 0.990257 0.178164 0.854723C0.293185 0.71919 0.452606 0.629916 0.628 0.601Z" fill="#0154A0"/>
</svg>
