<svg width="32" height="28" viewBox="0 0 32 28" fill="none" xmlns="http://www.w3.org/2000/svg">
<path d="M3.5 0C2.57174 0 1.6815 0.368749 1.02513 1.02513C0.368749 1.6815 0 2.57174 0 3.5V10.02C1.04478 9.35155 2.25968 8.99749 3.5 9H28.5C29.788 9 30.99 9.376 32 10.02V7.5C32 6.57174 31.6313 5.6815 30.9749 5.02513C30.3185 4.36875 29.4283 4 28.5 4H18.828C18.7623 4.00012 18.6972 3.98728 18.6365 3.96223C18.5757 3.93718 18.5205 3.9004 18.474 3.854L15.646 1.026C14.99 0.369516 14.1001 0.000463403 13.172 0H3.5ZM3.5 12C2.57174 12 1.6815 12.3687 1.02513 13.0251C0.368749 13.6815 0 14.5717 0 15.5V24.5C0 26.432 1.568 28 3.5 28H28.5C29.4283 28 30.3185 27.6313 30.9749 26.9749C31.6313 26.3185 32 25.4283 32 24.5V15.5C32 14.5717 31.6313 13.6815 30.9749 13.0251C30.3185 12.3687 29.4283 12 28.5 12H3.5Z" fill="#0154A0"/>
</svg>
