<svg width="22" height="18" viewBox="0 0 22 18" fill="none" xmlns="http://www.w3.org/2000/svg">
<path fill-rule="evenodd" clip-rule="evenodd" d="M0.5 3C0.5 2.40326 0.737053 1.83097 1.15901 1.40901C1.58097 0.987053 2.15326 0.75 2.75 0.75H19.25C19.8467 0.75 20.419 0.987053 20.841 1.40901C21.2629 1.83097 21.5 2.40326 21.5 3V15C21.5 15.5967 21.2629 16.169 20.841 16.591C20.419 17.0129 19.8467 17.25 19.25 17.25H2.75C2.15326 17.25 1.58097 17.0129 1.15901 16.591C0.737053 16.169 0.5 15.5967 0.5 15V3ZM2 13.06V15C2 15.414 2.336 15.75 2.75 15.75H19.25C19.4489 15.75 19.6397 15.671 19.7803 15.5303C19.921 15.3897 20 15.1989 20 15V13.06L17.31 10.371C17.0287 10.0901 16.6475 9.93232 16.25 9.93232C15.8525 9.93232 15.4713 10.0901 15.19 10.371L14.31 11.25L15.28 12.22C15.3537 12.2887 15.4128 12.3715 15.4538 12.4635C15.4948 12.5555 15.5168 12.6548 15.5186 12.7555C15.5204 12.8562 15.5018 12.9562 15.4641 13.0496C15.4264 13.143 15.3703 13.2278 15.299 13.299C15.2278 13.3703 15.143 13.4264 15.0496 13.4641C14.9562 13.5018 14.8562 13.5204 14.7555 13.5186C14.6548 13.5168 14.5555 13.4948 14.4635 13.4538C14.3715 13.4128 14.2887 13.3537 14.22 13.28L9.06 8.121C8.77875 7.8401 8.3975 7.68232 8 7.68232C7.6025 7.68232 7.22125 7.8401 6.94 8.121L2 13.061V13.06ZM12.125 5.25C12.125 4.95163 12.2435 4.66548 12.4545 4.4545C12.6655 4.24353 12.9516 4.125 13.25 4.125C13.5484 4.125 13.8345 4.24353 14.0455 4.4545C14.2565 4.66548 14.375 4.95163 14.375 5.25C14.375 5.54837 14.2565 5.83452 14.0455 6.0455C13.8345 6.25647 13.5484 6.375 13.25 6.375C12.9516 6.375 12.6655 6.25647 12.4545 6.0455C12.2435 5.83452 12.125 5.54837 12.125 5.25Z" fill="#56D6F3"/>
</svg>
