<svg width="19" height="22" viewBox="0 0 19 22" fill="none" xmlns="http://www.w3.org/2000/svg">
<path fill-rule="evenodd" clip-rule="evenodd" d="M17.952 0.651027C18.0446 0.720994 18.1197 0.811514 18.1715 0.915458C18.2232 1.0194 18.25 1.13393 18.25 1.25003V15.303C18.2498 15.9549 18.0374 16.589 17.6448 17.1093C17.2522 17.6297 16.7007 18.008 16.074 18.187L14.754 18.564C14.4301 18.6612 14.0902 18.6931 13.754 18.6579C13.4177 18.6226 13.0918 18.521 12.7951 18.3588C12.4985 18.1965 12.237 17.977 12.0259 17.7129C11.8148 17.4488 11.6582 17.1454 11.5653 16.8204C11.4724 16.4953 11.445 16.155 11.4847 15.8192C11.5244 15.4834 11.6303 15.1589 11.7965 14.8644C11.9626 14.5699 12.1855 14.3114 12.4524 14.1038C12.7192 13.8962 13.0247 13.7436 13.351 13.655L15.662 12.995C15.9754 12.9055 16.2511 12.7163 16.4474 12.4562C16.6437 12.196 16.7499 11.879 16.75 11.553V5.99403L7.74996 8.56603V18.303C7.74983 18.9549 7.53738 19.589 7.14477 20.1093C6.75216 20.6297 6.20074 21.008 5.57396 21.187L4.25396 21.564C3.92973 21.6625 3.58912 21.6955 3.25201 21.6611C2.91489 21.6266 2.58802 21.5253 2.29043 21.3632C1.99285 21.2011 1.73052 20.9814 1.51874 20.7168C1.30695 20.4523 1.14995 20.1482 1.05689 19.8224C0.963834 19.4966 0.936575 19.1554 0.976706 18.819C1.01684 18.4825 1.12356 18.1573 1.29064 17.8625C1.45772 17.5677 1.68183 17.3091 1.94989 17.1018C2.21795 16.8945 2.5246 16.7426 2.85196 16.655L5.16196 15.995C5.47535 15.9055 5.75106 15.7163 5.94737 15.4562C6.14367 15.196 6.24989 14.879 6.24996 14.553V4.25003C6.24999 4.08706 6.30311 3.92855 6.40126 3.79846C6.49941 3.66837 6.63727 3.57379 6.79396 3.52903L17.294 0.529027C17.4056 0.497031 17.5231 0.491397 17.6373 0.512568C17.7515 0.533739 17.8592 0.581137 17.952 0.651027Z" fill="#0154A0"/>
</svg>
