<svg width="28" height="36" viewBox="0 0 28 36" fill="none" xmlns="http://www.w3.org/2000/svg">
<path fill-rule="evenodd" clip-rule="evenodd" d="M14 0C21.732 0 28 3.58 28 8C28 12.42 21.732 16 14 16C6.268 16 0 12.42 0 8C0 3.58 6.268 0 14 0ZM25.388 16.26C26.316 15.732 27.208 15.094 28 14.356V18C28 22.42 21.732 26 14 26C6.268 26 0 22.42 0 18V14.356C0.792 15.096 1.684 15.732 2.612 16.262C5.676 18.012 9.708 19 14 19C18.292 19 22.324 18.012 25.388 16.26ZM0 24.358V28C0 32.42 6.268 36 14 36C21.732 36 28 32.42 28 28V24.356C27.208 25.096 26.316 25.732 25.388 26.262C22.324 28.012 18.292 29 14 29C9.708 29 5.676 28.012 2.612 26.26C1.67093 25.7288 0.794444 25.0906 0 24.358Z" fill="#0154A0"/>
</svg>
