<svg width="12" height="15" viewBox="0 0 12 15" fill="none" xmlns="http://www.w3.org/2000/svg">
<path fill-rule="evenodd" clip-rule="evenodd" d="M3 2.75V3.5H0.75C0.551088 3.5 0.360322 3.57902 0.21967 3.71967C0.0790175 3.86032 0 4.05109 0 4.25C0 4.44891 0.0790175 4.63968 0.21967 4.78033C0.360322 4.92098 0.551088 5 0.75 5H1.05L1.865 13.15C1.90218 13.5199 2.0754 13.8628 2.35107 14.1123C2.62675 14.3617 2.98523 14.4999 3.357 14.5H8.642C9.01394 14.5001 9.37267 14.3621 9.64856 14.1126C9.92444 13.8631 10.0978 13.5201 10.135 13.15L10.95 5H11.25C11.4489 5 11.6397 4.92098 11.7803 4.78033C11.921 4.63968 12 4.44891 12 4.25C12 4.05109 11.921 3.86032 11.7803 3.71967C11.6397 3.57902 11.4489 3.5 11.25 3.5H9V2.75C9 2.15326 8.76295 1.58097 8.34099 1.15901C7.91903 0.737053 7.34674 0.5 6.75 0.5H5.25C4.65326 0.5 4.08097 0.737053 3.65901 1.15901C3.23705 1.58097 3 2.15326 3 2.75ZM5.25 2C5.05109 2 4.86032 2.07902 4.71967 2.21967C4.57902 2.36032 4.5 2.55109 4.5 2.75V3.5H7.5V2.75C7.5 2.55109 7.42098 2.36032 7.28033 2.21967C7.13968 2.07902 6.94891 2 6.75 2H5.25ZM4.05 5.5C4.14852 5.49502 4.24705 5.50952 4.33996 5.54268C4.43286 5.57584 4.51832 5.627 4.59142 5.69323C4.66453 5.75946 4.72385 5.83946 4.76599 5.92865C4.80813 6.01784 4.83226 6.11447 4.837 6.213L5.112 11.713C5.11933 11.9101 5.04872 12.1022 4.91546 12.2476C4.7822 12.393 4.59702 12.4801 4.40002 12.4899C4.20302 12.4998 4.01007 12.4317 3.86295 12.3003C3.71583 12.1689 3.62639 11.9849 3.614 11.788L3.339 6.288C3.33388 6.18956 3.34821 6.09107 3.38118 5.99818C3.41416 5.90528 3.46511 5.8198 3.53115 5.74661C3.59718 5.67343 3.677 5.61397 3.76603 5.57166C3.85506 5.52934 3.95155 5.50499 4.05 5.5ZM7.95 5.5C8.04844 5.50487 8.14496 5.52909 8.23404 5.57129C8.32312 5.61349 8.403 5.67283 8.46913 5.74592C8.53525 5.81901 8.58632 5.90442 8.61942 5.99726C8.65251 6.09011 8.66698 6.18856 8.662 6.287L8.387 11.787C8.37461 11.9839 8.28517 12.1679 8.13805 12.2993C7.99093 12.4307 7.79798 12.4988 7.60098 12.4889C7.40398 12.4791 7.2188 12.392 7.08554 12.2466C6.95228 12.1012 6.88167 11.9091 6.889 11.712L7.164 6.212C7.17409 6.01354 7.26253 5.82719 7.4099 5.69389C7.55727 5.56058 7.75152 5.49021 7.95 5.5Z" fill="#888888"/>
</svg>
