<svg width="36" height="32" viewBox="0 0 36 32" fill="none" xmlns="http://www.w3.org/2000/svg">
<path d="M12.0004 12C13.5917 12 15.1178 11.3679 16.243 10.2426C17.3682 9.11742 18.0004 7.5913 18.0004 6C18.0004 4.4087 17.3682 2.88258 16.243 1.75736C15.1178 0.632141 13.5917 0 12.0004 0C10.4091 0 8.88294 0.632141 7.75772 1.75736C6.6325 2.88258 6.00036 4.4087 6.00036 6C6.00036 7.5913 6.6325 9.11742 7.75772 10.2426C8.88294 11.3679 10.4091 12 12.0004 12ZM27.0004 14C28.3264 14 29.5982 13.4732 30.5359 12.5355C31.4736 11.5979 32.0004 10.3261 32.0004 9C32.0004 7.67392 31.4736 6.40215 30.5359 5.46447C29.5982 4.52678 28.3264 4 27.0004 4C25.6743 4 24.4025 4.52678 23.4648 5.46447C22.5271 6.40215 22.0004 7.67392 22.0004 9C22.0004 10.3261 22.5271 11.5979 23.4648 12.5355C24.4025 13.4732 25.6743 14 27.0004 14ZM1.23036 28.856C0.83823 28.6116 0.523272 28.2612 0.321892 27.8454C0.120512 27.4295 0.0409347 26.9652 0.0923581 26.506C0.461069 23.6081 1.87386 20.9441 4.06598 19.0132C6.2581 17.0824 9.07911 16.0171 12.0004 16.0171C14.9216 16.0171 17.7426 17.0824 19.9347 19.0132C22.1269 20.9441 23.5396 23.6081 23.9084 26.506C24.0244 27.44 23.5644 28.346 22.7684 28.854C19.5549 30.9133 15.8171 32.0053 12.0004 32C8.18317 32.0063 4.44465 30.915 1.23036 28.856ZM27.0004 28H26.7884C26.9284 27.406 26.9644 26.778 26.8844 26.134C26.5425 23.3846 25.4429 20.7844 23.7084 18.624C24.8246 18.1848 26.0174 17.973 27.2166 18.0012C28.4158 18.0293 29.5973 18.2968 30.6917 18.7879C31.7861 19.279 32.7714 19.9839 33.5896 20.8611C34.4078 21.7383 35.0425 22.7701 35.4564 23.896C35.5835 24.2554 35.5812 24.6479 35.4497 25.0058C35.3183 25.3637 35.0659 25.6644 34.7364 25.856C32.4018 27.2635 29.7264 28.005 27.0004 28Z" fill="#0154A0"/>
</svg>
