<svg width="40" height="40" viewBox="0 0 40 40" fill="none" xmlns="http://www.w3.org/2000/svg">
<rect width="40" height="40" rx="20" fill="white"/>
<path fill-rule="evenodd" clip-rule="evenodd" d="M27.916 12.626C28.0815 12.7363 28.1964 12.9079 28.2354 13.1029C28.2744 13.298 28.2343 13.5005 28.124 13.666L19.124 27.166C19.0624 27.2582 18.9811 27.3357 18.886 27.3927C18.7909 27.4498 18.6843 27.485 18.574 27.4959C18.4636 27.5068 18.3522 27.4931 18.2477 27.4558C18.1433 27.4185 18.0484 27.3584 17.97 27.28L11.97 21.28C11.8375 21.1378 11.7654 20.9498 11.7688 20.7555C11.7723 20.5612 11.851 20.3758 11.9884 20.2384C12.1258 20.101 12.3112 20.0223 12.5055 20.0188C12.6998 20.0154 12.8878 20.0875 13.03 20.22L18.383 25.573L26.876 12.833C26.9865 12.6677 27.1581 12.553 27.3531 12.5142C27.5482 12.4754 27.7506 12.5156 27.916 12.626Z" fill="#0154A0"/>
</svg>
